<svg width="1600" height="760" viewBox="0 0 1600 760" fill="none" xmlns="http://www.w3.org/2000/svg" role="img" aria-labelledby="title desc">
  <title id="title">Universe-scale site seeding benchmark</title>
  <desc id="desc">Large benchmark card showing full EVE JS universe site seed scale numbers.</desc>
  <defs>
    <linearGradient id="bg" x1="0" y1="0" x2="1" y2="1">
      <stop offset="0%" stop-color="#050914"/>
      <stop offset="46%" stop-color="#0d1725"/>
      <stop offset="100%" stop-color="#140816"/>
    </linearGradient>
    <linearGradient id="a" x1="0" y1="0" x2="1" y2="1">
      <stop offset="0%" stop-color="#2af6ff"/>
      <stop offset="100%" stop-color="#51ffd0"/>
    </linearGradient>
    <linearGradient id="b" x1="0" y1="0" x2="1" y2="1">
      <stop offset="0%" stop-color="#ffd27a"/>
      <stop offset="100%" stop-color="#ff7aad"/>
    </linearGradient>
    <filter id="glow" x="-30%" y="-30%" width="160%" height="160%">
      <feGaussianBlur stdDeviation="16" result="blur"/>
      <feBlend in="SourceGraphic" in2="blur"/>
    </filter>
  </defs>
  <rect width="1600" height="760" rx="30" fill="url(#bg)"/>
  <g opacity="0.42" filter="url(#glow)">
    <path d="M-80 466C226 354 412 420 690 286C986 142 1162 188 1680 82" stroke="#2af6ff" stroke-width="3"/>
    <path d="M-72 586C218 520 448 562 736 384C1018 210 1202 286 1690 182" stroke="#ff7aad" stroke-width="3"/>
    <path d="M-40 338C246 292 492 310 746 210C1012 106 1210 114 1664 54" stroke="#ffd27a" stroke-width="2"/>
  </g>
  <rect x="72" y="64" width="1456" height="632" rx="28" fill="#0c1320" fill-opacity="0.92" stroke="#2c4669" stroke-width="2"/>
  <text x="120" y="132" fill="#eef7ff" font-family="Inter, Segoe UI, Arial, sans-serif" font-size="58" font-weight="900">ABSURD Full-Universe Site Seed</text>
  <text x="1036" y="132" fill="#c5d1df" font-family="Inter, Segoe UI, Arial, sans-serif" font-size="28" font-weight="600">single click, full EVE JS site state</text>
  <g>
    <rect x="120" y="190" width="390" height="164" rx="18" fill="#0b2935" stroke="#2af6ff" stroke-width="2"/>
    <text x="154" y="262" fill="#2af6ff" font-family="JetBrains Mono, Consolas, monospace" font-size="58" font-weight="900">39,570</text>
    <text x="156" y="304" fill="#eef7ff" font-family="Inter, Segoe UI, Arial, sans-serif" font-size="27" font-weight="900">desired sites</text>
    <text x="156" y="336" fill="#c5d1df" font-family="Inter, Segoe UI, Arial, sans-serif" font-size="21">broad families + generated mining</text>
  </g>
  <g>
    <rect x="560" y="190" width="390" height="164" rx="18" fill="#302414" stroke="#ffd27a" stroke-width="2"/>
    <text x="594" y="262" fill="#ffd27a" font-family="JetBrains Mono, Consolas, monospace" font-size="58" font-weight="900">39,596</text>
    <text x="596" y="304" fill="#eef7ff" font-family="Inter, Segoe UI, Arial, sans-serif" font-size="27" font-weight="900">runtime instances</text>
    <text x="596" y="336" fill="#c5d1df" font-family="Inter, Segoe UI, Arial, sans-serif" font-size="21">persisted universe state</text>
  </g>
  <g>
    <rect x="1000" y="190" width="408" height="164" rx="18" fill="#331426" stroke="#ff7aad" stroke-width="2"/>
    <text x="1034" y="262" fill="#ff7aad" font-family="JetBrains Mono, Consolas, monospace" font-size="58" font-weight="900">36.887s</text>
    <text x="1036" y="304" fill="#eef7ff" font-family="Inter, Segoe UI, Arial, sans-serif" font-size="27" font-weight="900">full reconcile</text>
    <text x="1036" y="336" fill="#c5d1df" font-family="Inter, Segoe UI, Arial, sans-serif" font-size="21">last full local run receipt</text>
  </g>
  <g>
    <rect x="120" y="406" width="284" height="166" rx="18" fill="#101d2e" stroke="#355b84" stroke-width="2"/>
    <text x="150" y="472" fill="#7ce7ff" font-family="JetBrains Mono, Consolas, monospace" font-size="46" font-weight="900">8,490</text>
    <text x="152" y="516" fill="#eef7ff" font-family="Inter, Segoe UI, Arial, sans-serif" font-size="24" font-weight="800">systems</text>
    <text x="152" y="548" fill="#c5d1df" font-family="Inter, Segoe UI, Arial, sans-serif" font-size="19">everywhere it matters</text>
  </g>
  <g>
    <rect x="438" y="406" width="284" height="166" rx="18" fill="#101d2e" stroke="#355b84" stroke-width="2"/>
    <text x="468" y="472" fill="#ffd27a" font-family="JetBrains Mono, Consolas, monospace" font-size="46" font-weight="900">6,057</text>
    <text x="470" y="516" fill="#eef7ff" font-family="Inter, Segoe UI, Arial, sans-serif" font-size="24" font-weight="800">templates</text>
    <text x="470" y="548" fill="#c5d1df" font-family="Inter, Segoe UI, Arial, sans-serif" font-size="19">client + repo authority</text>
  </g>
  <g>
    <rect x="756" y="406" width="284" height="166" rx="18" fill="#101d2e" stroke="#355b84" stroke-width="2"/>
    <text x="786" y="472" fill="#ff7aad" font-family="JetBrains Mono, Consolas, monospace" font-size="46" font-weight="900">5,417</text>
    <text x="788" y="516" fill="#eef7ff" font-family="Inter, Segoe UI, Arial, sans-serif" font-size="24" font-weight="800">client dungeons</text>
    <text x="788" y="548" fill="#c5d1df" font-family="Inter, Segoe UI, Arial, sans-serif" font-size="19">decoded into authority</text>
  </g>
  <g>
    <rect x="1074" y="406" width="334" height="166" rx="18" fill="#101d2e" stroke="#355b84" stroke-width="2"/>
    <text x="1104" y="472" fill="#51ffd0" font-family="JetBrains Mono, Consolas, monospace" font-size="46" font-weight="900">23</text>
    <text x="1106" y="516" fill="#eef7ff" font-family="Inter, Segoe UI, Arial, sans-serif" font-size="24" font-weight="800">spawn families</text>
    <text x="1106" y="548" fill="#c5d1df" font-family="Inter, Segoe UI, Arial, sans-serif" font-size="19">combat, data, relic, ore, gas, drifter</text>
  </g>
  <path d="M120 628H1408" stroke="#2c4669" stroke-width="2"/>
  <text x="120" y="666" fill="#c5d1df" font-family="Inter, Segoe UI, Arial, sans-serif" font-size="24" font-weight="700">Measured from the current EVE JS universe state: 347.56MB dungeon runtime state, 64.26MB authority graph, 97.02MB sharded mining site state.</text>
</svg>
